<svg xmlns="http://www.w3.org/2000/svg" width="57" height="57" fill="none"><path fill="#F50049" d="M47.9434 9.0566C42.7549 3.8574 35.8477 1 28.5 1S14.2451 3.8574 9.0566 9.0566C3.8574 14.2451 1 21.1523 1 28.5s2.8574 14.2549 8.0566 19.4434C14.256 53.1426 21.1523 56 28.5 56s14.2549-2.8574 19.4434-8.0566C53.1426 42.7441 56 35.8477 56 28.5s-2.8574-14.2549-8.0566-19.4434ZM46.7939 46.794C41.9062 51.6816 35.418 54.3672 28.5 54.3672c-6.918 0-13.4062-2.6856-18.2939-7.5733C5.3291 41.9062 2.6328 35.4072 2.6328 28.5c0-6.9072 2.6856-13.4062 7.5733-18.2939C15.0938 5.3291 21.5928 2.6328 28.5 2.6328c6.9072 0 13.4062 2.6856 18.2939 7.5733 4.8877 4.8877 7.5733 11.3759 7.5733 18.2939 0 6.918-2.6963 13.4062-7.5733 18.2939Z"/><path fill="#F50049" d="m49.4258 19.584-1.4824.6875c1.3964 2.9863 2.1054 6.209 2.1054 9.5498h1.6328c0-3.5879-.7519-7.0254-2.2558-10.2373ZM44.8818 12.5049c-4.5761-4.5762-10.667-7.1006-17.1338-7.1006v1.6328c6.0372 0 11.709 2.3525 15.9844 6.6172a22.895 22.895 0 0 1 3.5557 4.5977l1.4072-.8272a24.748 24.748 0 0 0-3.8135-4.9199ZM37.4805 34.2148h-.9346c-1.6113 0-4.6191.3008-6.5742 2.2559-.2578.2578-.4834.5371-.6875.8379v-4.4473h.0967c1.6113 0 4.6191-.29 6.5742-2.2558 2.6855-2.6856 2.2344-7.3155 2.2236-7.5088a.7987.7987 0 0 0-.6982-.6983h-.9346c-1.6113 0-4.6191.3008-6.5742 2.2559-.2578.2578-.4834.5371-.6875.8379v-2.041c.8808-.7842 3.4482-3.416 3.4482-6.628 0-3.792-3.5879-6.7568-3.7383-6.875a.7773.7773 0 0 0-.9882 0c-.1612.1289-3.7383 3.0938-3.7383 6.875 0 3.212 2.5781 5.833 3.4482 6.628v1.998a6.4182 6.4182 0 0 0-.6875-.8486c-1.9658-1.9658-4.9629-2.2559-6.5742-2.2559h-.9346a.7987.7987 0 0 0-.6982.6983c0 .1933-.4619 4.8232 2.2236 7.5088 1.9658 1.9658 4.9629 2.2558 6.5742 2.2558h.0967v4.4043c-.2041-.29-.4404-.5478-.6982-.7949-1.9658-1.9658-4.9629-2.2559-6.5742-2.2559h-.9346a.7988.7988 0 0 0-.6983.6983c0 .1933-.4619 4.8232 2.2237 7.5088C23 44.334 25.9971 44.624 27.6084 44.624h.0967v6.4024c0 .4297.3545.7841.7842.7841.4296 0 .7841-.3544.7841-.7841v-6.3487h.086c1.6113 0 4.6191-.29 6.5742-2.2558 2.6855-2.6856 2.2344-7.3155 2.2236-7.5088-.0215-.3652-.3115-.6553-.6767-.6983Zm-15.3184-4.705c-1.6221-1.6221-1.8047-4.3291-1.8047-5.5752h.0967c1.1064 0 3.8457.1718 5.4785 1.8047 1.6328 1.6328 1.8047 4.3291 1.8047 5.5752-1.0635.0214-3.8994-.129-5.5752-1.8047Zm5.5752 13.5996c-1.0635.0215-3.8994-.1289-5.5752-1.8047-1.6221-1.6221-1.8047-4.3291-1.8047-5.5752 1.0742 0 3.9102.1289 5.5752 1.8047 1.6651 1.6758 1.8154 4.3398 1.8047 5.5752Zm.7949-21.0547c-.9023-.8809-2.6748-2.9219-2.6748-5.2207s1.7832-4.3291 2.6641-5.21c.8916.8809 2.664 2.9219 2.664 5.21s-1.7617 4.3398-2.6533 5.2207Zm2.5781 3.6738-.0429.0108c1.6221-1.6221 4.3721-1.8047 5.4785-1.8047h.0967c0 1.2461-.1612 3.9101-1.8047 5.5752-1.6436 1.665-4.501 1.8261-5.5752 1.8047.0322-1.2784.2148-3.9532 1.8476-5.586Zm3.7706 15.5869c-1.6329 1.6651-4.3614 1.8047-5.4786 1.8047h-.0966c0-1.2568.1826-3.9531 1.8046-5.5752l-.0107-.0107c1.6221-1.6221 4.3721-1.8047 5.4785-1.8047h.0967c0 1.2461-.1611 3.9209-1.7939 5.5859Z"/><path stroke="#F50049" stroke-miterlimit="10" d="M47.9434 9.0566C42.7549 3.8574 35.8477 1 28.5 1S14.2451 3.8574 9.0566 9.0566C3.8574 14.2451 1 21.1523 1 28.5s2.8574 14.2549 8.0566 19.4434C14.256 53.1426 21.1523 56 28.5 56s14.2549-2.8574 19.4434-8.0566C53.1426 42.7441 56 35.8477 56 28.5s-2.8574-14.2549-8.0566-19.4434ZM46.7939 46.794C41.9062 51.6816 35.418 54.3672 28.5 54.3672c-6.918 0-13.4062-2.6856-18.2939-7.5733C5.3291 41.9062 2.6328 35.4072 2.6328 28.5c0-6.9072 2.6856-13.4062 7.5733-18.2939C15.0938 5.3291 21.5928 2.6328 28.5 2.6328c6.9072 0 13.4062 2.6856 18.2939 7.5733 4.8877 4.8877 7.5733 11.3759 7.5733 18.2939 0 6.918-2.6963 13.4062-7.5733 18.2939Z"/><path stroke="#F50049" stroke-miterlimit="10" d="m49.4258 19.584-1.4824.6875c1.3964 2.9863 2.1054 6.209 2.1054 9.5498h1.6328c0-3.5879-.7519-7.0254-2.2558-10.2373ZM44.8818 12.5049c-4.5761-4.5762-10.667-7.1006-17.1338-7.1006v1.6328c6.0372 0 11.709 2.3525 15.9844 6.6172a22.895 22.895 0 0 1 3.5557 4.5977l1.4072-.8272a24.748 24.748 0 0 0-3.8135-4.9199ZM37.4805 34.2148h-.9346c-1.6113 0-4.6191.3008-6.5742 2.2559-.2578.2578-.4834.5371-.6875.8379v-4.4473h.0967c1.6113 0 4.6191-.29 6.5742-2.2558 2.6855-2.6856 2.2344-7.3155 2.2236-7.5088a.7987.7987 0 0 0-.6982-.6983h-.9346c-1.6113 0-4.6191.3008-6.5742 2.2559-.2578.2578-.4834.5371-.6875.8379v-2.041c.8808-.7842 3.4482-3.416 3.4482-6.628 0-3.792-3.5879-6.7568-3.7383-6.875a.7773.7773 0 0 0-.9882 0c-.1612.1289-3.7383 3.0938-3.7383 6.875 0 3.212 2.5781 5.833 3.4482 6.628v1.998a6.4182 6.4182 0 0 0-.6875-.8486c-1.9658-1.9658-4.9629-2.2559-6.5742-2.2559h-.9346a.7987.7987 0 0 0-.6982.6983c0 .1933-.4619 4.8232 2.2236 7.5088 1.9658 1.9658 4.9629 2.2558 6.5742 2.2558h.0967v4.4043c-.2041-.29-.4404-.5478-.6982-.7949-1.9658-1.9658-4.9629-2.2559-6.5742-2.2559h-.9346a.7988.7988 0 0 0-.6983.6983c0 .1933-.4619 4.8232 2.2237 7.5088C23 44.334 25.9971 44.624 27.6084 44.624h.0967v6.4024c0 .4297.3545.7841.7842.7841.4296 0 .7841-.3544.7841-.7841v-6.3487h.086c1.6113 0 4.6191-.29 6.5742-2.2558 2.6855-2.6856 2.2344-7.3155 2.2236-7.5088-.0215-.3652-.3115-.6553-.6767-.6983Zm-15.3184-4.705c-1.6221-1.6221-1.8047-4.3291-1.8047-5.5752h.0967c1.1064 0 3.8457.1718 5.4785 1.8047 1.6328 1.6328 1.8047 4.3291 1.8047 5.5752-1.0635.0214-3.8994-.129-5.5752-1.8047Zm5.5752 13.5996c-1.0635.0215-3.8994-.1289-5.5752-1.8047-1.6221-1.6221-1.8047-4.3291-1.8047-5.5752 1.0742 0 3.9102.1289 5.5752 1.8047 1.6651 1.6758 1.8154 4.3398 1.8047 5.5752Zm.7949-21.0547c-.9023-.8809-2.6748-2.9219-2.6748-5.2207s1.7832-4.3291 2.6641-5.21c.8916.8809 2.664 2.9219 2.664 5.21s-1.7617 4.3398-2.6533 5.2207Zm2.5781 3.6738-.0429.0108c1.6221-1.6221 4.3721-1.8047 5.4785-1.8047h.0967c0 1.2461-.1612 3.9101-1.8047 5.5752-1.6436 1.665-4.501 1.8261-5.5752 1.8047.0322-1.2784.2148-3.9532 1.8476-5.586Zm3.7706 15.5869c-1.6329 1.6651-4.3614 1.8047-5.4786 1.8047h-.0966c0-1.2568.1826-3.9531 1.8046-5.5752l-.0107-.0107c1.6221-1.6221 4.3721-1.8047 5.4785-1.8047h.0967c0 1.2461-.1611 3.9209-1.7939 5.5859Z"/></svg>