<svg xmlns="http://www.w3.org/2000/svg" width="55" height="55" fill="none"><path fill="#F50049" fill-rule="evenodd" d="M52.066 12.391h-7.63a7.667 7.667 0 0 0 2.008-5.184v-.392a7.06 7.06 0 0 0-1.013-3.422A6.9 6.9 0 0 0 42.884.932 7.012 7.012 0 0 0 39.394 0a7.012 7.012 0 0 0-3.489.932L32.436 2.91a12.178 12.178 0 0 0-4.932 5.304 12.178 12.178 0 0 0-4.932-5.304L19.103.93a7.014 7.014 0 0 0-3.49-.93c-1.222 0-2.424.32-3.489.93a6.902 6.902 0 0 0-2.547 2.462 7.062 7.062 0 0 0-1.013 3.423v.392c0 1.925.717 3.778 2.008 5.184h-7.63a2.88 2.88 0 0 0-1.121.221c-.356.148-.68.366-.953.64-.274.276-.49.604-.64.964-.149.361-.226.748-.228 1.14v7.036c.004.789.315 1.544.865 2.1a2.9 2.9 0 0 0 2.069.865h1.344v26.677c.003.789.314 1.544.864 2.1a2.9 2.9 0 0 0 2.07.865h40.576a2.9 2.9 0 0 0 2.07-.864c.55-.556.86-1.311.864-2.1V25.358h1.344a2.9 2.9 0 0 0 2.07-.865c.55-.556.86-1.311.864-2.1v-7.037a3.005 3.005 0 0 0-.865-2.1 2.9 2.9 0 0 0-2.069-.865Zm-18.433-7.33L37.1 3.084a4.598 4.598 0 0 1 4.58 0c.68.375 1.251.924 1.658 1.594.407.669.635 1.435.662 2.221v.306a5.256 5.256 0 0 1-1.512 3.672 5.071 5.071 0 0 1-3.618 1.512H28.792a9.88 9.88 0 0 1 1.562-4.25 9.667 9.667 0 0 1 3.279-3.075v-.001Zm-22.63 1.833c.027-.785.254-1.55.66-2.218a4.474 4.474 0 0 1 1.653-1.593 4.601 4.601 0 0 1 4.581 0l3.47 1.979a9.668 9.668 0 0 1 3.28 3.076 9.88 9.88 0 0 1 1.561 4.253H16.13a5.071 5.071 0 0 1-3.618-1.512A5.256 5.256 0 0 1 11 7.207v-.309l.003-.004Zm11 22.218h-5.032a1.197 1.197 0 0 0-.88.349 1.237 1.237 0 0 0-.369.886 1.255 1.255 0 0 0 .368.886 1.211 1.211 0 0 0 .881.35H22v20.942H7.212a.485.485 0 0 1-.345-.144.502.502 0 0 1-.145-.35V25.358H22v3.758l.003-.004Zm0-6.227H2.934a.484.484 0 0 1-.346-.145.502.502 0 0 1-.144-.351v-7.036c0-.132.053-.258.145-.351a.486.486 0 0 1 .345-.145H22v8.028h.003Zm8.555 29.64h-6.11V14.86h6.11v37.665Zm17.723-.494a.502.502 0 0 1-.145.35.485.485 0 0 1-.345.144H33V31.586h4.657a1.195 1.195 0 0 0 .88-.349 1.237 1.237 0 0 0 .369-.886 1.255 1.255 0 0 0-.368-.886 1.211 1.211 0 0 0-.881-.35H33v-3.757h15.278v26.677l.003-.004Zm4.278-29.642a.502.502 0 0 1-.144.35.484.484 0 0 1-.346.146H33V14.86h19.066c.13 0 .254.052.345.145a.504.504 0 0 1 .145.35v7.037l.003-.004Zm-9.096 9.197h.122a1.195 1.195 0 0 0 .88-.349 1.237 1.237 0 0 0 .369-.886 1.255 1.255 0 0 0-.368-.886 1.211 1.211 0 0 0-.881-.35h-.122a1.195 1.195 0 0 0-.88.35 1.236 1.236 0 0 0-.369.886 1.255 1.255 0 0 0 .368.886 1.21 1.21 0 0 0 .881.35Zm-32.422 0h.122a1.195 1.195 0 0 0 .88-.349 1.237 1.237 0 0 0 .369-.886 1.255 1.255 0 0 0-.368-.886 1.211 1.211 0 0 0-.881-.35h-.122a1.195 1.195 0 0 0-.88.35 1.237 1.237 0 0 0-.369.886 1.255 1.255 0 0 0 .368.886 1.211 1.211 0 0 0 .881.35Z" clip-rule="evenodd"/></svg>