<svg xmlns="http://www.w3.org/2000/svg" width="68" height="20" fill="none"><path fill="#2D2829" d="M10.77 1.957c.615.326 1.333.652 1.948 1.195.205.109.308.218.41.218.308 0 .513-.544.616-1.522h.512c-.102 1.087-.102 3.152-.102 6.087h-.513c-.102-1.196-.308-2.174-.615-2.826-.206-.652-.616-1.196-1.231-1.74-.41-.434-.82-.652-1.334-.869a3.914 3.914 0 0 0-1.538-.326c-1.641 0-2.77.76-3.59 2.391-.82 1.63-1.128 3.696-1.128 6.087 0 2.392.41 4.457 1.23 6.087.719 1.74 1.95 2.5 3.59 2.5.513 0 1.026-.109 1.642-.326.513-.217.923-.543 1.333-.87.615-.434 1.026-1.087 1.23-1.739.206-.652.411-1.739.514-3.043h.512c0 3.043 0 5.109.103 6.304h-.513c0-.543-.102-.87-.205-1.087-.102-.217-.205-.326-.41-.326-.103 0-.308.109-.513.218-.718.543-1.333.978-2.051 1.195-.718.218-1.436.435-2.36.435-1.64 0-3.076-.326-4.41-1.087-1.23-.76-2.256-1.74-2.871-3.152A12.146 12.146 0 0 1 0 10.87C0 9.022.308 7.39 1.026 5.978A8.084 8.084 0 0 1 4 2.718c1.23-.761 2.667-1.196 4.308-1.196 1.025 0 1.743.108 2.461.435ZM18.256 18.913c-.512-.543-.718-1.304-.718-2.174 0-.76.206-1.413.513-1.848.41-.543.82-.87 1.334-1.087.512-.217 1.23-.543 2.05-.87.821-.325 1.54-.651 1.95-.869.41-.217.615-.652.615-1.087V9.022c0-.652-.103-1.196-.41-1.63-.308-.435-.82-.544-1.436-.544-.718 0-1.334.217-1.744.652.41.217.82.435 1.026.76.205.327.41.762.41 1.197 0 .543-.205.978-.513 1.304-.41.326-.82.543-1.333.543s-1.026-.217-1.23-.543c-.308-.326-.411-.87-.411-1.413 0-.435.102-.87.308-1.196a2.174 2.174 0 0 1 1.025-.87c.41-.217.923-.434 1.539-.652.615-.108 1.333-.217 2.051-.217.82 0 1.436.109 2.051.217.616.218 1.026.435 1.436.87.308.326.616.87.718 1.304.103.435.205 1.305.205 2.174v6.848c0 .435 0 .652.103.87.102.217.205.217.41.217s.513-.109.82-.435l.206.435c-.718.652-1.539.978-2.564.978-.82 0-1.436-.217-1.847-.543-.307-.326-.512-.87-.512-1.522-.82 1.304-1.949 2.065-3.488 2.065-1.333-.217-2.153-.434-2.564-.978Zm5.641-1.848v-5.109c-.205.327-.615.653-1.23 1.088-.616.434-1.129.869-1.436 1.304-.308.435-.513.978-.513 1.848 0 .652.102 1.195.41 1.521.308.327.616.435 1.026.435.718 0 1.23-.326 1.743-1.087ZM43.385 18.587c.205.217.41.326.615.435v.543c-1.23-.109-2.051-.109-2.462-.109-.512 0-1.538 0-3.076.11v-.544c.205 0 .41 0 .512-.109.103-.109.206-.217.206-.326 0-.109 0-.217-.103-.326l-2.36-4.457c-.204-.326-.307-.434-.512-.543-.205-.109-.41-.217-.615-.217v4.347c0 .653.102 1.196.307 1.413.206.218.616.435 1.129.435v.326c-1.539-.109-2.565-.109-3.077-.109-.513 0-1.641 0-3.282.11v-.544c.512 0 .923-.109 1.128-.435.205-.217.308-.76.308-1.413V2.934c0-.76-.103-1.304-.308-1.63-.205-.326-.616-.543-1.128-.543V.217c.512 0 1.025.11 1.436.11 1.333 0 2.564-.11 3.487-.327v12.5c.307 0 .615-.109.82-.217.205-.11.41-.218.616-.435L38.769 10c.513-.543.82-1.087.82-1.522 0-.435-.204-.652-.512-.87-.308-.217-.82-.325-1.333-.434V6.63c.82 0 1.743.11 2.769.11 1.333 0 2.256 0 2.77-.11v.544c-.924.217-1.95.87-2.975 1.956l-1.539 1.63 4 7.066c.205.326.41.544.616.761ZM55.282 15.87l.41.108c-.307 1.087-.923 1.957-1.64 2.718-.821.76-1.847 1.087-3.078 1.087-1.64 0-2.974-.544-4-1.74-1.025-1.087-1.435-2.826-1.435-5 0-2.282.512-4.021 1.538-5.108 1.026-1.087 2.462-1.74 4.205-1.74 2.974 0 4.41 1.848 4.41 5.544h-6.666v1.196c0 1.087.102 2.065.41 2.717.308.761.718 1.304 1.128 1.63.41.327.923.544 1.539.544 1.333 0 2.358-.652 3.18-1.956Zm-5.538-7.935c-.41.76-.616 1.848-.718 3.478h3.692c0-1.304-.103-2.391-.41-3.26-.308-.87-.718-1.305-1.231-1.305-.513-.109-1.026.326-1.333 1.087ZM64.615 6.522c.513.108.924.326 1.129.543.205.109.307.218.41.218.102 0 .308-.11.41-.218.103-.217.103-.435.205-.76h.513c-.102.869-.102 2.282-.102 4.347h-.513c-.103-1.087-.41-2.065-.923-2.717-.513-.761-1.129-1.087-2.052-1.087-.513 0-.82.109-1.128.435-.308.326-.41.652-.41 1.195 0 .544.205 1.087.513 1.413.41.435.923.87 1.743 1.522l.718.543c.923.761 1.641 1.414 2.154 2.066.41.652.718 1.304.718 2.282 0 .761-.205 1.413-.615 1.957-.41.543-.924.978-1.641 1.304-.718.326-1.436.435-2.257.435a4.98 4.98 0 0 1-2.256-.544c-.513-.217-.82-.434-1.128-.543-.206 0-.308 0-.41.109-.103.108-.206.434-.308.76h-.513c.102-.978.102-2.608.102-5h.513c.308 3.044 1.334 4.566 3.18 4.566.41 0 .82-.109 1.128-.435.308-.326.513-.76.513-1.304 0-.435-.103-.87-.308-1.305-.205-.326-.41-.652-.718-.978-.308-.326-.718-.652-1.333-1.196a32.99 32.99 0 0 0-1.641-1.413c-.41-.326-.718-.76-.923-1.304-.206-.543-.41-1.087-.41-1.63 0-1.087.41-1.957 1.128-2.5.718-.544 1.743-.979 2.871-.979.513 0 1.129 0 1.641.218Z"/></svg>